<?xml version="1.0" standalone="no"?>
<!DOCTYPE svg PUBLIC "-//W3C//DTD SVG 20010904//EN"
 "http://www.w3.org/TR/2001/REC-SVG-20010904/DTD/svg10.dtd">
<svg version="1.0" xmlns="http://www.w3.org/2000/svg"
 width="1500.000000pt" height="1500.000000pt" viewBox="0 0 1500.000000 1500.000000"
 preserveAspectRatio="xMidYMid meet">
<metadata>
Created by potrace 1.10, written by Peter Selinger 2001-2011
</metadata>
<g transform="translate(0.000000,1500.000000) scale(0.100000,-0.100000)"
fill="#000000" stroke="none">
<path d="M4043 11730 c-16 -18 -40 -44 -54 -59 -14 -14 -38 -48 -54 -74 -29
-50 -64 -72 -99 -63 -31 8 -146 -22 -207 -54 -31 -17 -63 -30 -71 -30 -7 0
-29 -13 -48 -28 -19 -15 -55 -36 -80 -47 -25 -10 -53 -25 -62 -33 -28 -23 -22
-64 12 -97 47 -45 37 -60 -38 -60 -56 0 -65 -3 -82 -25 -28 -36 -25 -53 20
-105 63 -72 57 -85 -44 -99 -47 -6 -112 -49 -120 -79 -11 -42 -6 -91 15 -134
29 -60 20 -89 -34 -113 -23 -11 -51 -20 -62 -20 -22 0 -85 -52 -85 -69 0 -5 8
-16 18 -23 44 -31 55 -65 49 -144 -6 -88 -23 -119 -75 -141 -45 -19 -61 -39
-62 -78 0 -54 26 -108 71 -146 l43 -36 -3 -97 c-2 -88 0 -100 25 -147 24 -43
89 -109 108 -109 4 0 35 -18 69 -39 41 -26 90 -46 147 -60 191 -45 173 -44
307 -15 149 34 169 27 106 -36 -39 -38 -43 -40 -104 -40 -35 0 -80 -4 -99 -9
-19 -5 -48 -12 -64 -16 -32 -7 -151 -123 -162 -159 -4 -11 -24 -43 -44 -71
-21 -27 -48 -70 -60 -95 -13 -25 -35 -61 -51 -81 -16 -20 -40 -59 -54 -87 -14
-28 -41 -71 -59 -95 -18 -24 -36 -55 -40 -70 -3 -15 -38 -63 -77 -107 -53 -61
-88 -90 -146 -122 -58 -32 -79 -49 -89 -74 -15 -35 -34 -259 -34 -400 0 -141
-37 -131 -134 34 -25 44 -46 82 -46 87 0 4 -9 26 -19 49 -52 113 -81 213 -81
279 0 83 -41 286 -92 458 -15 53 -28 106 -28 118 0 28 -96 218 -132 259 -15
18 -41 59 -57 91 -17 32 -41 71 -54 87 -13 16 -32 44 -41 63 -20 37 -149 171
-166 171 -6 0 -26 11 -44 25 -58 44 -145 65 -270 65 -96 -1 -116 -4 -150 -23
-22 -13 -48 -34 -58 -48 l-19 -26 55 -115 c56 -115 141 -241 189 -278 14 -11
27 -20 30 -20 2 0 35 -20 71 -45 49 -33 78 -45 104 -45 183 -2 308 -18 340
-43 19 -15 59 -114 76 -190 4 -15 7 -172 7 -349 1 -177 6 -336 11 -352 4 -17
18 -74 29 -126 16 -73 32 -116 71 -185 69 -121 135 -197 306 -350 101 -90 116
-113 136 -211 38 -189 11 -418 -68 -569 -22 -42 -40 -128 -33 -157 6 -22 127
-128 147 -128 16 0 90 -71 90 -86 0 -7 -12 -38 -26 -69 -19 -41 -63 -92 -163
-193 -158 -159 -222 -238 -245 -305 -20 -61 -20 -133 0 -194 22 -64 100 -166
149 -194 22 -12 54 -32 70 -45 17 -12 55 -34 85 -50 30 -15 69 -37 85 -49 17
-12 59 -37 95 -57 36 -20 85 -52 110 -72 25 -20 50 -36 57 -36 6 0 38 -22 69
-50 31 -27 60 -50 63 -50 4 0 38 -37 76 -82 39 -44 100 -112 136 -150 66 -68
66 -68 121 -68 30 0 104 -7 165 -15 161 -21 421 -22 460 -2 51 27 55 57 17
132 -14 28 -32 71 -40 97 -17 54 -70 123 -175 228 -100 98 -131 122 -220 166
-41 20 -87 47 -104 58 -16 12 -41 27 -55 33 -29 12 -149 100 -194 142 -15 14
-53 64 -84 111 -79 118 -113 227 -121 385 -4 66 -4 134 -1 150 8 44 56 65 155
66 44 1 120 4 169 8 112 8 122 18 135 141 17 152 31 224 56 294 14 38 25 79
25 92 0 40 33 128 72 189 21 33 47 77 58 97 23 43 223 246 298 303 73 55 274
264 318 331 20 30 39 54 44 54 4 0 13 13 19 28 6 15 27 45 46 66 58 66 160
238 179 303 30 98 11 208 -60 358 -23 50 -47 105 -53 123 -6 18 -19 46 -31 61
-24 35 -26 69 -4 78 8 3 43 -2 77 -10 82 -21 215 -31 248 -19 14 6 56 33 93
61 37 28 75 51 84 51 15 -1 116 -90 168 -151 30 -33 132 -126 192 -173 27 -22
89 -57 138 -78 72 -31 99 -38 154 -38 64 0 90 10 128 47 7 7 20 13 28 13 25 0
74 100 74 153 0 87 -19 115 -203 307 -51 53 -117 127 -147 165 -30 38 -76 92
-101 120 -92 102 -97 123 -47 236 l32 74 -2 205 c-2 162 -7 226 -23 304 -11
55 -18 113 -15 131 4 19 26 51 56 82 56 58 74 63 222 63 74 0 100 4 112 16 19
18 19 20 6 45 -7 13 -21 19 -44 19 -19 0 -45 9 -60 21 -21 17 -24 24 -15 40 6
11 18 23 27 25 112 36 128 75 61 152 -24 27 -29 42 -29 85 -1 60 -55 194 -86
212 -10 5 -37 24 -59 41 -49 38 -95 54 -152 54 -79 0 -130 32 -168 105 -39 75
-161 179 -241 205 -22 7 -67 25 -101 41 -33 16 -81 33 -106 39 -49 11 -152 0
-203 -20 -39 -17 -64 -7 -64 23 0 39 -35 74 -95 92 -30 10 -61 15 -69 12 -23
-9 -114 19 -151 47 -18 14 -37 26 -41 26 -4 0 -15 7 -24 15 -9 8 -49 17 -98
21 l-82 7 -27 -33z"/>
<path d="M5771 10153 c-23 -16 -17 -239 6 -265 15 -16 46 -18 379 -17 242 0
370 -4 384 -11 20 -11 20 -19 22 -1073 1 -584 1 -1084 0 -1110 -4 -74 1 -77
149 -77 70 0 138 4 151 9 l24 9 2 1118 c1 614 5 1120 8 1123 3 3 173 8 377 11
257 3 378 9 392 17 17 10 20 24 21 132 2 83 -1 123 -10 130 -18 15 -1884 20
-1905 4z"/>
<path d="M9265 9309 c-22 -5 -56 -11 -75 -15 -47 -8 -110 -31 -231 -88 -61
-28 -194 -136 -224 -182 -10 -16 -26 -37 -36 -48 -16 -17 -52 -85 -85 -161 -7
-16 -25 -68 -41 -115 -26 -81 -28 -94 -28 -270 0 -166 3 -191 22 -245 12 -33
33 -91 47 -129 13 -37 29 -73 35 -79 6 -6 11 -15 11 -20 0 -22 99 -138 177
-208 42 -38 211 -129 273 -147 133 -39 383 -37 515 5 124 39 254 114 327 188
99 101 194 274 209 379 4 34 13 79 18 101 16 60 13 270 -4 340 -8 33 -14 76
-15 96 0 23 -17 71 -45 127 -25 49 -45 94 -45 99 0 6 -23 36 -51 68 -27 32
-57 68 -66 81 -8 13 -21 24 -28 24 -7 0 -37 20 -67 45 -30 25 -58 45 -61 45
-3 0 -45 18 -94 41 -48 22 -110 45 -138 49 -27 5 -74 14 -104 19 -62 13 -139
12 -196 0z m325 -237 c36 -18 81 -43 101 -55 47 -28 155 -135 177 -175 72
-130 82 -154 98 -248 19 -111 15 -281 -9 -370 -20 -73 -105 -224 -158 -281
-64 -68 -173 -140 -250 -164 -75 -24 -248 -28 -333 -8 -56 13 -133 49 -183 86
-17 12 -36 23 -42 23 -5 0 -22 17 -38 38 -15 20 -47 58 -70 84 -24 26 -43 55
-43 65 0 10 -6 27 -13 38 -8 11 -17 29 -20 40 -3 11 -15 47 -27 80 -17 50 -21
85 -21 206 -1 89 3 155 10 167 6 11 11 32 11 46 0 13 13 53 29 88 16 35 31 71
32 81 7 34 123 154 190 196 36 22 70 41 76 41 5 0 15 6 21 12 7 7 32 20 55 30
35 15 68 17 192 15 148 -2 151 -2 215 -35z"/>
<path d="M7236 9268 c-13 -20 -15 -136 -14 -836 l1 -814 26 -10 c29 -11 165
-7 178 5 4 5 10 144 13 310 4 220 9 308 18 325 12 21 18 22 158 22 l145 0 30
-32 c16 -18 29 -36 29 -41 0 -5 20 -40 45 -77 25 -37 45 -72 45 -77 0 -5 17
-34 39 -64 21 -30 50 -76 65 -104 14 -27 39 -65 55 -84 16 -19 35 -46 43 -60
26 -51 70 -111 88 -121 20 -11 161 -13 198 -4 31 9 28 37 -9 87 -17 23 -54 77
-82 121 -29 43 -69 104 -89 135 -21 31 -50 76 -65 100 -16 23 -49 75 -76 115
-63 95 -61 116 12 134 123 30 279 179 315 302 21 70 21 242 1 321 -32 123
-142 262 -235 295 -25 9 -54 21 -65 27 -56 30 -248 46 -587 46 -267 1 -268 1
-282 -21z m681 -182 c39 -3 70 -15 124 -47 59 -35 79 -55 117 -112 43 -64 47
-76 50 -141 5 -87 -14 -139 -79 -223 -39 -51 -57 -64 -113 -86 -65 -27 -70
-27 -300 -27 l-235 0 -21 27 c-20 26 -21 35 -18 303 2 213 6 281 16 293 10 11
35 17 85 19 79 4 292 0 374 -6z"/>
<path d="M10398 9282 c-9 -2 -19 -13 -22 -25 -2 -12 -5 -385 -6 -828 0 -723 2
-808 16 -820 21 -17 916 -14 954 4 22 11 25 19 28 77 1 36 -2 72 -8 80 -8 13
-64 15 -382 18 -208 2 -377 8 -383 13 -5 6 -9 288 -10 734 -1 448 -4 728 -10
734 -10 9 -147 20 -177 13z"/>
<path d="M11533 9280 l-21 -9 -4 -823 c-2 -499 0 -828 6 -836 7 -10 102 -12
472 -10 536 3 504 -3 504 98 0 96 20 91 -399 90 -200 -1 -365 1 -368 4 -3 3
-6 332 -7 731 -1 624 -4 727 -16 739 -18 18 -137 29 -167 16z"/>
<path d="M11450 7360 c-19 -5 -48 -12 -65 -15 -16 -4 -43 -13 -60 -20 -220
-97 -233 -105 -344 -218 -32 -32 -67 -77 -79 -100 -41 -82 -82 -180 -82 -197
0 -10 -7 -34 -15 -53 -28 -67 -10 -211 40 -322 13 -27 30 -67 39 -89 17 -40
156 -179 207 -206 15 -8 59 -31 96 -51 37 -20 84 -41 103 -47 19 -6 87 -26
150 -45 63 -19 149 -43 190 -52 90 -21 337 -100 400 -128 25 -11 59 -30 75
-42 17 -12 40 -25 53 -29 33 -11 89 -73 128 -142 31 -55 34 -69 34 -140 0 -87
-19 -141 -87 -242 -67 -102 -216 -181 -379 -202 -158 -20 -382 0 -474 43 -30
14 -80 35 -110 47 -74 29 -203 118 -279 191 -34 32 -69 59 -77 59 -16 0 -108
-95 -131 -134 -17 -31 -43 -87 -43 -96 0 -21 64 -98 95 -115 21 -11 52 -33 71
-50 47 -43 220 -128 344 -169 193 -63 218 -67 460 -66 l220 0 160 53 c99 34
182 69 220 93 78 50 197 165 215 208 8 18 21 39 30 46 22 18 65 115 65 146 0
13 7 65 16 115 16 94 16 100 -15 289 -18 111 -167 311 -260 350 -17 7 -35 18
-41 25 -16 20 -108 66 -160 81 -40 11 -138 44 -225 75 -16 6 -69 19 -118 29
-48 11 -120 31 -160 45 -39 15 -86 30 -102 34 -17 4 -40 13 -52 19 -12 7 -32
12 -45 12 -35 0 -179 81 -231 129 -16 14 -40 49 -54 76 -22 42 -26 64 -26 130
0 68 5 92 33 160 40 97 41 98 104 140 105 69 164 86 320 92 83 3 186 1 251 -6
100 -11 119 -17 224 -67 63 -31 130 -68 148 -85 19 -16 37 -29 41 -29 4 0 32
-22 62 -50 30 -27 59 -50 64 -50 11 0 90 80 131 134 60 77 58 72 41 104 -16
31 -121 132 -137 132 -6 0 -34 18 -64 40 -30 23 -88 52 -128 66 -39 14 -97 35
-127 46 -134 48 -148 50 -390 53 -129 2 -251 0 -270 -5z"/>
<path d="M4675 7329 c-11 -16 -9 -2519 1 -2529 5 -4 339 -9 742 -11 643 -4
734 -2 742 11 5 8 10 63 10 121 0 89 -3 108 -18 122 -16 15 -77 17 -580 19
-521 3 -563 4 -579 21 -17 16 -18 81 -18 1127 0 976 -2 1112 -15 1120 -21 14
-277 13 -285 -1z"/>
<path d="M7274 7332 c-15 -9 -49 -79 -58 -117 -4 -16 -30 -82 -58 -145 -28
-63 -54 -132 -59 -152 -5 -21 -25 -70 -45 -110 -19 -40 -46 -104 -59 -143 -13
-38 -42 -109 -64 -158 -23 -48 -41 -93 -41 -100 0 -17 -66 -167 -79 -180 -6
-6 -11 -18 -11 -27 -1 -20 -30 -100 -63 -174 -15 -32 -36 -86 -46 -120 -11
-33 -31 -85 -46 -114 -14 -29 -37 -88 -51 -130 -13 -42 -40 -106 -58 -142 -19
-36 -40 -85 -47 -110 -7 -25 -32 -88 -56 -140 -25 -52 -47 -108 -50 -125 -3
-16 -23 -68 -45 -115 -42 -89 -81 -220 -70 -232 9 -9 302 -12 323 -4 9 4 28
30 43 59 15 29 31 59 35 67 5 8 18 42 29 75 31 91 89 234 115 285 17 31 32 46
53 52 28 8 1233 2 1242 -6 12 -12 97 -211 119 -276 40 -125 109 -259 135 -265
13 -3 86 -4 163 -3 l140 3 3 26 c2 14 -4 46 -13 70 -9 24 -20 60 -24 79 -4 19
-28 80 -54 135 -25 55 -52 123 -60 150 -8 28 -34 89 -56 138 -23 48 -41 94
-41 101 0 8 -20 59 -45 114 -25 55 -45 107 -45 116 0 9 -20 58 -44 109 -24 51
-51 117 -61 147 -9 30 -34 91 -54 135 -21 44 -48 114 -61 155 -13 41 -28 82
-35 90 -16 20 -75 164 -75 183 0 8 -18 49 -40 90 -22 42 -45 98 -51 124 -6 26
-22 68 -34 93 -12 25 -32 74 -44 110 -12 35 -40 101 -62 145 -21 45 -46 106
-55 136 -9 30 -28 66 -42 82 l-26 27 -180 0 c-100 0 -186 -4 -192 -8z m236
-432 c28 -83 47 -130 75 -184 14 -27 25 -57 25 -66 0 -10 20 -63 45 -120 25
-57 50 -121 56 -144 6 -23 30 -84 55 -138 24 -53 48 -116 54 -141 5 -24 28
-82 50 -128 22 -46 40 -91 40 -101 0 -10 19 -59 41 -110 49 -109 47 -120 -32
-129 -30 -4 -253 -7 -495 -8 -394 -1 -444 0 -458 14 -20 20 -20 30 -1 63 8 15
23 56 34 92 10 36 37 104 60 151 23 48 41 96 41 108 0 11 20 62 44 113 25 51
52 120 62 153 10 33 30 85 45 115 15 30 36 85 48 123 11 37 25 75 31 85 20 36
70 161 70 175 0 17 38 106 53 125 19 24 39 7 57 -48z"/>
<path d="M9276 7333 c-410 -3 -462 -5 -478 -20 -17 -15 -18 -68 -18 -1182 1
-641 5 -1199 9 -1240 7 -53 14 -79 27 -88 28 -20 1235 -19 1319 2 33 8 74 14
91 15 30 0 89 24 181 75 48 26 173 148 173 168 0 8 12 32 28 53 15 21 33 53
41 69 32 72 45 307 24 445 -22 151 -167 341 -319 417 -42 20 -78 41 -81 46 -9
15 19 37 60 48 33 9 63 33 139 110 59 60 100 110 104 127 3 15 14 47 24 72 39
98 56 224 41 320 -8 56 -39 164 -72 251 -20 53 -211 229 -248 229 -9 0 -27 6
-41 13 -94 48 -269 78 -436 75 -60 -2 -316 -4 -568 -5z m764 -299 c95 -51 134
-80 172 -126 35 -43 47 -65 79 -148 17 -46 17 -195 0 -240 -8 -19 -21 -53 -30
-75 -8 -22 -38 -63 -66 -90 -125 -125 -125 -125 -634 -125 -398 0 -412 1 -431
20 -19 19 -20 33 -20 395 0 364 1 376 20 393 26 22 180 30 570 27 l285 -1 55
-30z m-8 -1103 c55 -9 90 -28 173 -91 37 -29 135 -158 135 -178 0 -6 7 -23 15
-38 20 -40 19 -167 -2 -235 -23 -75 -114 -213 -165 -249 -103 -75 -275 -95
-733 -86 -281 6 -322 9 -332 23 -10 13 -13 114 -13 424 0 357 2 410 16 423 13
14 67 16 432 16 229 0 442 -4 474 -9z"/>
</g>
</svg>
